<svg width="500" height="420" viewBox="0 0 500 420" fill="none" xmlns="http://www.w3.org/2000/svg">
<g clip-path="url(#clip0_1_86)">
<path d="M488.174 346.197H-8.54553V345.077H488.174C488.484 345.077 488.734 345.327 488.734 345.637C488.734 345.946 488.484 346.197 488.174 346.197Z" fill="#3F3D56"/>
<path d="M114.075 345.077H82.9547C78.3035 345.077 74.5193 341.292 74.5193 336.641V245.298C74.5193 240.646 78.3035 236.862 82.9547 236.862H114.075C118.726 236.862 122.51 240.646 122.51 245.298V336.641C122.51 341.292 118.726 345.077 114.075 345.077Z" fill="#3F3D56"/>
<path d="M418.958 345.256H387.838C383.186 345.256 379.402 341.471 379.402 336.82V245.477C379.402 240.825 383.186 237.041 387.838 237.041H418.958C423.609 237.041 427.393 240.825 427.393 245.477V336.82C427.393 341.471 423.609 345.256 418.958 345.256Z" fill="#3F3D56"/>
<path d="M121.452 118.108L75.6259 183.194C70.0961 191.048 67.9036 200.774 69.5285 210.241L83.4562 291.384C86.4476 308.813 101.559 321.552 119.243 321.552H388.533C407.725 321.552 423.602 306.617 424.775 287.461L430.15 199.671C430.79 189.22 426.887 179.002 419.443 171.638L355.163 108.053C348.107 101.073 338.502 97.2859 328.581 97.5718L150.095 102.717C138.656 103.046 128.041 108.75 121.452 118.108H121.452Z" fill="#2667ff"/>
<path d="M128.433 129.662L119.671 146.046C114.087 156.486 122.228 168.814 134.614 168.677L353.981 166.24C367.456 166.09 375.044 151.566 366.986 141.351L353.173 123.842C349.988 119.804 344.937 117.465 339.612 117.561L142.819 121.124C136.717 121.234 131.184 124.519 128.433 129.662H128.433Z" fill="white"/>
<path d="M403.029 163.851C401.612 163.851 400.231 163.326 399.171 162.366C397.97 161.279 397.281 159.726 397.281 158.106L397.282 154.505L398.003 137.908C398.138 134.825 400.659 132.411 403.744 132.411H426.58C428.707 132.411 430.649 133.577 431.651 135.453L434.371 140.555C435.232 142.169 435.28 144.043 434.504 145.698C433.728 147.354 432.256 148.516 430.466 148.885L413.249 152.448C411.469 152.816 410.065 154.134 409.587 155.889L408.57 159.618C407.948 161.898 405.95 163.587 403.598 163.823C403.409 163.842 403.218 163.851 403.029 163.851V163.851Z" fill="#2667ff"/>
<path d="M94.5499 163.823C92.1983 163.587 90.2001 161.897 89.578 159.618L88.5612 155.889C88.0829 154.134 86.6796 152.816 84.8997 152.448L67.6828 148.885C65.8927 148.516 64.4206 147.354 63.6445 145.698C62.8685 144.043 62.9167 142.169 63.7768 140.555L66.4978 135.453C67.499 133.577 69.4417 132.411 71.5681 132.411H94.4047C97.4896 132.411 100.011 134.825 100.145 137.908L100.867 154.505L100.867 158.106C100.867 159.726 100.178 161.279 98.9769 162.366C97.9169 163.326 96.5367 163.851 95.1192 163.851C94.9299 163.851 94.7397 163.842 94.5499 163.823L94.5499 163.823Z" fill="#2667ff"/>
<path d="M126.274 234.98C138.747 234.98 148.858 224.869 148.858 212.396C148.858 199.923 138.747 189.812 126.274 189.812C113.801 189.812 103.69 199.923 103.69 212.396C103.69 224.869 113.801 234.98 126.274 234.98Z" fill="white"/>
<path d="M386.46 235.451C398.932 235.451 409.044 225.339 409.044 212.867C409.044 200.394 398.932 190.283 386.46 190.283C373.987 190.283 363.876 200.394 363.876 212.867C363.876 225.339 373.987 235.451 386.46 235.451Z" fill="white"/>
<path d="M96.2127 91.7432C98.2924 92.9073 100.063 94.5523 101.376 96.541L116.206 105.359L141.402 117.161C141.402 117.161 147.344 96.0373 154.444 94.6881C161.543 93.3389 173.256 108.994 173.256 108.994C173.256 108.994 152.838 142.053 143.944 138.663C135.051 135.274 115.179 118.812 115.179 118.812L112.583 116.703L96.0727 105.719C93.6931 105.574 91.3829 104.862 89.3352 103.641C84.1713 100.658 81.5248 95.5752 83.4238 92.2894C85.3228 89.0034 91.0474 88.7584 96.2127 91.7432V91.7432Z" fill="#A0616A"/>
<path d="M145.325 100.912L158.21 85.743L165.994 86.8645C175.542 88.24 180.851 98.655 176.353 107.189L171.868 115.699L145.325 100.912V100.912Z" fill="#E6E6E6"/>
<path d="M103.425 120.771L80.7464 89.5069C80.41 89.0453 80.4923 88.3985 80.9332 88.0344L86.3736 83.542C86.6095 83.3472 86.9185 83.2614 87.2211 83.3061C87.5232 83.3512 87.7951 83.5219 87.9656 83.7773L110.499 117.595C110.684 117.872 110.731 118.214 110.628 118.532C110.524 118.85 110.284 119.099 109.969 119.214L104.676 121.152C104.286 121.295 103.852 121.199 103.557 120.921C103.509 120.876 103.465 120.826 103.425 120.771V120.771Z" fill="#3F3D56"/>
<path d="M105.228 118.86L81.7565 88.4361C81.4086 87.9868 81.4327 87.4016 81.811 87.104L86.4784 83.431C86.6808 83.2718 86.9595 83.2181 87.2428 83.2832C87.5256 83.3488 87.7906 83.5267 87.9687 83.7741L111.511 116.522C111.705 116.791 111.775 117.107 111.705 117.39C111.635 117.673 111.433 117.881 111.152 117.961L106.414 119.309C106.066 119.408 105.657 119.285 105.362 119.008C105.314 118.962 105.269 118.913 105.228 118.86H105.228Z" fill="#E6E6E6"/>
<path d="M95.8629 309.093L85.6574 331.116L69.0065 323.596L81.8975 306.945L95.8629 309.093Z" fill="#A0616A"/>
<path d="M78.6748 324.133L91.0288 322.522C91.0288 322.522 99.6228 342.932 93.1773 344.007C86.7318 345.081 36.2417 349.915 36.2417 343.47C36.2417 337.024 57.1897 328.967 57.1897 328.967L71.6922 318.762L78.6748 324.133V324.133Z" fill="#2F2E41"/>
<path d="M175.895 167.292C175.895 167.292 190.935 189.851 158.707 203.816L124.331 253.232L95.8629 315.002L78.6748 308.556L108.754 215.096L125.942 173.2L133.999 160.309L175.895 167.292V167.292Z" fill="#2F2E41"/>
<path d="M56.3918 250.422L49.5508 273.71L31.9718 268.732L42.2623 250.36L56.3918 250.422Z" fill="#A0616A"/>
<path d="M41.6135 267.835L53.5939 264.417C53.5939 264.417 65.1083 283.335 58.8921 285.349C52.6759 287.364 3.45351 299.602 2.50156 293.227C1.5496 286.852 21.0779 275.79 21.0779 275.79L33.9141 263.554L41.6135 267.835H41.6135Z" fill="#2F2E41"/>
<path d="M143.131 162.781L60.5798 180.695C54.2101 182.077 49.2714 187.113 48.0137 193.509L36.4594 252.263L61.7471 260.471L73.104 208.014L146.394 205.174L143.131 162.781H143.131Z" fill="#2F2E41"/>
<path d="M163.884 63.5151L153.677 83.511L180.83 87.7356L180.534 60.8515L163.884 63.5151Z" fill="#A0616A"/>
<path d="M169.552 71.7189C179.991 71.7189 188.453 63.2564 188.453 52.8173C188.453 42.3782 179.991 33.9156 169.552 33.9156C159.113 33.9156 150.65 42.3782 150.65 52.8173C150.65 63.2564 159.113 71.7189 169.552 71.7189Z" fill="#A0616A"/>
<path d="M181.803 173.737L184.921 123.243C187.618 111.156 186.72 98.5448 182.337 86.9626L181.266 74.9056L156.558 76.517L146.084 93.4365L136.148 133.453L133.999 160.309L181.803 173.737V173.737Z" fill="#E6E6E6"/>
<path d="M109.499 134.667C111.86 134.335 114.265 134.572 116.514 135.36L133.656 133.403L160.855 127.544C160.855 127.544 152.798 107.133 157.633 101.762C162.467 96.3908 181.266 101.762 181.266 101.762C181.266 101.762 185.026 140.435 175.895 143.121C166.764 145.807 140.982 144.732 140.982 144.732L137.639 144.624L117.848 145.876C115.866 147.201 113.596 148.032 111.227 148.3C105.311 149.052 100.128 146.608 99.6505 142.843C99.1729 139.078 103.581 135.418 109.499 134.667V134.667Z" fill="#A0616A"/>
<path d="M154.141 112.236L155.216 92.3623L162.091 88.5428C170.524 83.8578 181.053 88.9348 182.639 98.4504L184.22 107.939L154.141 112.236V112.236Z" fill="#E6E6E6"/>
<path d="M184.289 64.4344C184.289 64.4344 186.051 55.6216 180.764 55.0341C175.476 54.4466 170.188 43.8712 170.188 43.8712C170.188 43.8712 151.942 40.6886 151.355 48.3264C150.767 55.9642 150.993 54.2667 150.993 54.2667C150.993 54.2667 146.655 52.439 148.417 44.8012C148.921 42.619 150.144 40.6286 151.634 38.8986C156.424 33.3384 163.782 30.7116 171.072 31.5522C174.159 31.9082 183.352 34.8385 185.127 36.8362C189.827 42.1239 191.927 58.5592 184.289 64.4345V64.4344Z" fill="#3F3D56"/>
<path d="M121.972 288.513C118.656 288.513 115.731 286.778 114.139 283.865C112.539 280.935 112.669 277.516 114.488 274.718L114.758 274.893L114.488 274.718L120.384 265.648C122.037 263.104 124.836 261.585 127.87 261.585H384.281C386.896 261.585 389.369 262.724 391.068 264.711L397.538 272.278C399.823 274.951 400.334 278.597 398.871 281.795C397.409 284.992 394.317 286.991 390.801 287.01L122.025 288.513H121.972V288.513Z" fill="#3F3D56"/>
<path d="M428.751 179.021C433.468 182.106 438.883 182.173 440.846 179.17C442.809 176.168 440.576 171.234 435.857 168.149C433.989 166.89 431.847 166.098 429.609 165.837L409.458 153.018L403.644 162.602L424.127 174.222C425.263 176.168 426.848 177.813 428.751 179.021L428.751 179.021Z" fill="#FFB6B6"/>
<path d="M371.437 147.43L420.874 172.982L425.174 161.155L391.642 134.888L389.41 96.567C389.137 91.8874 386.79 87.6457 382.971 84.9288C379.152 82.2131 374.375 81.3875 369.864 82.6647C361.836 84.9392 357.049 93.351 359.195 101.415L371.437 147.43V147.43Z" fill="#E6E6E6"/>
<path d="M383.379 78.8583L385.69 64.4121L370.088 58.0558L367.777 80.014L383.379 78.8583Z" fill="#FFB6B6"/>
<path d="M334.247 161.059C334.247 161.059 329.768 189.053 347.684 192.412C365.6 195.772 406.471 198.011 406.471 198.011L459.099 261.837L469.737 250.08L424.387 180.095L387.995 157.14L334.247 161.059V161.059Z" fill="#2F2E41"/>
<path d="M338.523 156.528C338.523 156.528 328.077 182.883 344.838 190.049C361.598 197.215 401.01 208.268 401.01 208.268L438.538 281.992L451.473 272.822L422.386 194.666L391.841 164.362L338.523 156.528V156.528Z" fill="#2F2E41"/>
<path d="M386.315 76.5181L366.16 73.1589L352.499 80.7626C344.548 92.3276 343.891 129.008 342.015 142.917L330.888 168.898L366.16 163.859L394.714 161.059L385.196 98.9132L386.315 76.5181L386.315 76.5181Z" fill="#E6E6E6"/>
<path d="M379.436 69.0561C388.223 69.0561 395.346 61.9329 395.346 53.1459C395.346 44.3589 388.223 37.2357 379.436 37.2357C370.649 37.2357 363.526 44.3589 363.526 53.1459C363.526 61.9329 370.649 69.0561 379.436 69.0561Z" fill="#FFB6B6"/>
<path d="M378.166 31.7557C378.627 32.0244 379.243 31.6178 379.391 31.1056C379.539 30.5934 379.367 30.0495 379.196 29.5445C378.91 28.6969 378.624 27.8494 378.338 27.0019C377.729 25.1986 377.083 23.3324 375.764 21.9599C373.774 19.8883 370.611 19.3613 367.764 19.7431C364.108 20.2334 360.5 22.2132 358.8 25.4872C357.1 28.7612 357.824 33.3295 360.896 35.3721C356.517 40.3903 354.991 45.9828 355.232 52.6381C355.473 59.2933 362.726 65.4183 367.455 70.1066C368.512 69.4664 369.472 66.4658 368.891 65.3758C368.31 64.2858 369.142 63.0229 368.423 62.0189C367.704 61.0148 367.102 62.6136 367.829 61.6152C368.288 60.9853 366.497 59.536 367.179 59.1589C370.478 57.3352 371.576 53.2228 373.648 50.0736C376.147 46.2752 380.425 43.7028 384.952 43.276C387.446 43.0409 390.08 43.4667 392.124 44.9145C394.168 46.3622 395.491 48.9493 395.017 51.4089C396.245 50.1625 396.856 48.3358 396.625 46.6017C396.395 44.8675 395.328 43.2639 393.817 42.3814C394.736 39.3441 393.949 35.8504 391.817 33.5001C389.685 31.1497 381.038 31.55 377.926 32.1686" fill="#2F2E41"/>
<path d="M377.683 43.3683C373.561 43.8132 370.585 47.3838 368.072 50.6813C366.623 52.5818 365.106 54.6807 365.142 57.07C365.179 59.4858 366.794 61.5578 367.566 63.8471C368.828 67.5892 367.598 72.0413 364.595 74.6053C367.562 75.1685 370.77 72.9433 371.283 69.9664C371.879 66.5009 369.252 63.1562 369.563 59.6535C369.837 56.5676 372.269 54.1927 374.337 51.8854C376.404 49.5781 378.346 46.5163 377.395 43.5679" fill="#2F2E41"/>
<path d="M416.106 182.013C420.823 185.098 426.238 185.165 428.201 182.163C430.164 179.161 427.931 174.227 423.212 171.141C421.344 169.883 419.201 169.09 416.964 168.829L396.813 156.01L390.999 165.595L411.482 177.215C412.618 179.161 414.203 180.806 416.106 182.013V182.013Z" fill="#FFB6B6"/>
<path d="M358.792 150.423L408.228 175.974L412.529 164.147L378.997 137.88L376.765 99.5595C376.492 94.8799 374.145 90.6382 370.326 87.9213C366.507 85.2056 361.73 84.38 357.219 85.6572C349.191 87.9317 344.404 96.3435 346.55 104.408L358.792 150.423V150.423Z" fill="#E6E6E6"/>
<path d="M440.319 272.101L441.463 272.755C441.463 272.755 449.301 268.276 453.221 272.755C457.14 277.234 459.939 288.431 459.939 288.431C459.939 288.431 476.175 301.868 466.658 301.868C459.493 301.868 442.493 293.937 434.525 290.015C431.982 288.763 430.798 285.789 431.787 283.132C432.612 280.917 433.678 278.593 434.745 277.793C435.864 276.954 436.564 275.134 436.984 273.524C437.365 272.066 439.01 271.353 440.319 272.101V272.101Z" fill="#2F2E41"/>
<path d="M462.154 250.825L463.298 251.479C463.298 251.479 471.137 247 475.056 251.479C478.975 255.958 481.774 267.156 481.774 267.156C481.774 267.156 498.011 280.593 488.493 280.593C481.328 280.593 464.328 272.661 456.36 268.74C453.817 267.488 452.633 264.513 453.622 261.857C454.447 259.642 455.513 257.318 456.58 256.518C457.7 255.678 458.399 253.859 458.819 252.249C459.2 250.791 460.845 250.078 462.154 250.825V250.825Z" fill="#2F2E41"/>
</g>
<defs>
<clipPath id="clip0_1_86">
<rect width="500" height="420" fill="white"/>
</clipPath>
</defs>
</svg>
