<svg width="61" height="48" viewBox="0 0 61 48" fill="none" xmlns="http://www.w3.org/2000/svg">
<path d="M55.0007 43.3592V43.4588H55.0939C55.1114 43.4591 55.1287 43.4547 55.1439 43.4461C55.1563 43.4374 55.1633 43.4231 55.1627 43.408C55.1633 43.3932 55.1562 43.3792 55.1439 43.3709C55.1289 43.3619 55.1115 43.3574 55.0939 43.3582H55.0007V43.3592ZM55.0949 43.2887C55.1349 43.2862 55.1745 43.2977 55.2069 43.3211C55.2333 43.3426 55.2479 43.3753 55.2462 43.4093C55.2474 43.4384 55.2359 43.4667 55.2147 43.4867C55.1896 43.5084 55.1582 43.5215 55.1252 43.5239L55.2502 43.6659H55.1539L55.0389 43.5249H55.0017V43.6659H54.9212V43.2889H55.0962L55.0949 43.2887ZM55.0699 43.796C55.1121 43.7964 55.154 43.7879 55.1927 43.771C55.23 43.755 55.2639 43.7321 55.2927 43.7035C55.3215 43.675 55.3445 43.6411 55.3604 43.6039C55.3932 43.5249 55.3932 43.4362 55.3604 43.3572C55.3442 43.3201 55.3213 43.2863 55.2927 43.2575C55.2639 43.2289 55.23 43.206 55.1927 43.19C55.1537 43.1741 55.112 43.1661 55.0699 43.1666C55.0271 43.1662 54.9847 43.1741 54.9449 43.19C54.9068 43.2057 54.8721 43.2286 54.8427 43.2575C54.7523 43.3499 54.726 43.4872 54.7759 43.6063C54.7912 43.6437 54.8139 43.6777 54.8427 43.706C54.8721 43.7349 54.9068 43.7578 54.9449 43.7735C54.9844 43.7903 55.027 43.7988 55.0699 43.7985V43.796ZM55.0699 43.0759C55.1798 43.0758 55.2853 43.1187 55.3637 43.1955C55.4014 43.2323 55.4315 43.2763 55.4522 43.3248C55.4953 43.4254 55.4953 43.5393 55.4522 43.64C55.431 43.6882 55.401 43.7321 55.3637 43.7693C55.3253 43.806 55.2807 43.8355 55.2319 43.8565C55.1807 43.8782 55.1256 43.8892 55.0699 43.8889C55.0136 43.8893 54.9578 43.8783 54.9059 43.8565C54.8566 43.836 54.8116 43.8064 54.7732 43.7693C54.7358 43.7307 54.7062 43.6854 54.6859 43.6357C54.6428 43.5351 54.6428 43.4212 54.6859 43.3206C54.7066 43.272 54.7367 43.2281 54.7744 43.1912C54.8123 43.1535 54.8575 43.1238 54.9072 43.104C54.9591 43.0823 55.0149 43.0712 55.0712 43.0716L55.0699 43.0759ZM16.7919 41.62C16.7919 40.9012 17.2644 40.3107 18.0366 40.3107C18.7745 40.3107 19.2725 40.8758 19.2725 41.62C19.2725 42.3643 18.7745 42.9294 18.0366 42.9294C17.2644 42.9294 16.7919 42.3389 16.7919 41.62ZM20.1137 41.62V39.5744H19.2215V40.0727C18.9385 39.7045 18.5093 39.4735 17.9256 39.4735C16.7756 39.4735 15.8732 40.3725 15.8732 41.621C15.8732 42.8696 16.7751 43.7685 17.9256 43.7685C18.5091 43.7685 18.9385 43.5373 19.2215 43.1693V43.6659H20.1127V41.62H20.1137ZM50.2602 41.62C50.2602 40.9012 50.7326 40.3107 51.5051 40.3107C52.2438 40.3107 52.741 40.8758 52.741 41.62C52.741 42.3643 52.2438 42.9294 51.5051 42.9294C50.7329 42.9294 50.2602 42.3389 50.2602 41.62ZM53.583 41.62V37.9324H52.69V40.0727C52.4071 39.7045 51.9778 39.4735 51.3941 39.4735C50.2442 39.4735 49.3417 40.3725 49.3417 41.621C49.3417 42.8696 50.2437 43.7685 51.3941 43.7685C51.9778 43.7685 52.4071 43.5373 52.69 43.1693V43.6659H53.583V41.62ZM31.1872 40.2686C31.7621 40.2686 32.1314 40.6279 32.2256 41.2605H30.0967C30.192 40.67 30.5517 40.2686 31.1874 40.2686H31.1872ZM31.2052 39.4713C30.0027 39.4713 29.1615 40.3433 29.1615 41.6188C29.1615 42.9192 30.0365 43.7663 31.2649 43.7663C31.8829 43.7663 32.4488 43.6126 32.9468 43.1932L32.5096 42.5342C32.1656 42.8083 31.7276 42.962 31.3159 42.962C30.7409 42.962 30.2175 42.6967 30.0887 41.9604H33.1353C33.1441 41.8498 33.1531 41.7381 33.1531 41.6185C33.1441 40.3436 32.3531 39.471 31.2047 39.471L31.2052 39.4713ZM41.9766 41.6185C41.9766 40.8997 42.4491 40.3092 43.2213 40.3092C43.9592 40.3092 44.4572 40.8743 44.4572 41.6185C44.4572 42.3628 43.9592 42.9279 43.2213 42.9279C42.4491 42.9279 41.9763 42.3374 41.9763 41.6185H41.9766ZM45.2982 41.6185V39.5744H44.4065V40.0727C44.1225 39.7045 43.6943 39.4735 43.1105 39.4735C41.9606 39.4735 41.0581 40.3725 41.0581 41.621C41.0581 42.8696 41.9601 43.7685 43.1105 43.7685C43.6943 43.7685 44.1225 43.5373 44.4065 43.1693V43.6659H45.2984V41.62L45.2982 41.6185ZM36.9381 41.6185C36.9381 42.8591 37.8046 43.7661 39.127 43.7661C39.745 43.7661 40.1567 43.629 40.6019 43.2784L40.1734 42.5596C39.8385 42.7996 39.4867 42.9279 39.0985 42.9279C38.3863 42.9192 37.8626 42.4059 37.8626 41.6185C37.8626 40.8312 38.3863 40.3182 39.0985 40.3092C39.4857 40.3092 39.8375 40.4375 40.1734 40.6774L40.6019 39.9586C40.1559 39.608 39.7442 39.471 39.127 39.471C37.8046 39.471 36.9381 40.3777 36.9381 41.6185ZM48.44 39.471C47.9253 39.471 47.5901 39.7109 47.3583 40.0702V39.5744H46.4741V43.6637H47.3673V41.3714C47.3673 40.6946 47.6591 40.3187 48.2423 40.3187C48.4333 40.3159 48.6229 40.3509 48.8002 40.4216L49.0752 39.5834C48.8777 39.5059 48.6203 39.4718 48.4395 39.4718L48.44 39.471ZM24.5247 39.8996C24.0955 39.6175 23.504 39.4718 22.8516 39.4718C21.8121 39.4718 21.1429 39.9683 21.1429 40.7808C21.1429 41.4476 21.6411 41.859 22.5586 41.9873L22.9801 42.0471C23.4693 42.1156 23.7003 42.2439 23.7003 42.4749C23.7003 42.7911 23.3753 42.9715 22.7651 42.9715C22.1471 42.9715 21.7011 42.7746 21.4004 42.5437L20.9812 43.2371C21.4704 43.5964 22.0884 43.7678 22.7576 43.7678C23.9425 43.7678 24.6292 43.2117 24.6292 42.433C24.6292 41.7142 24.0888 41.3382 23.1958 41.2099L22.7753 41.1491C22.3891 41.0993 22.0796 41.0218 22.0796 40.7477C22.0796 40.4487 22.3714 40.2688 22.8608 40.2688C23.3846 40.2688 23.8915 40.4657 24.14 40.6194L24.5262 39.9006L24.5247 39.8996ZM36.0369 39.4725C35.5222 39.4725 35.1869 39.7124 34.9562 40.0717V39.5744H34.072V43.6637H34.9642V41.3714C34.9642 40.6946 35.2559 40.3187 35.8392 40.3187C36.0301 40.3159 36.2198 40.3509 36.3971 40.4216L36.6721 39.5834C36.4746 39.5059 36.2171 39.4718 36.0364 39.4718L36.0369 39.4725ZM28.4233 39.5744H26.9644V38.3338H26.0624V39.5744H25.2302V40.3872H26.0624V42.2526C26.0624 43.2015 26.4319 43.7666 27.4873 43.7666C27.8746 43.7666 28.3206 43.647 28.6035 43.4504L28.3458 42.6889C28.0796 42.8427 27.7878 42.9202 27.5558 42.9202C27.1099 42.9202 26.9644 42.6461 26.9644 42.2357V40.3879H28.4233V39.5744ZM15.0842 43.6646V41.0983C15.0842 40.1318 14.4663 39.4815 13.4701 39.4728C12.9463 39.464 12.4061 39.6265 12.0279 40.2003C11.7449 39.7468 11.2989 39.4728 10.672 39.4728C10.2337 39.4728 9.8055 39.6011 9.47027 40.08V39.5744H8.57732V43.6637H9.47727V41.3963C9.47727 40.6864 9.87225 40.3092 10.4822 40.3092C11.0747 40.3092 11.3744 40.6941 11.3744 41.3873V43.6632H12.2764V41.3958C12.2764 40.6859 12.6881 40.3087 13.2803 40.3087C13.8895 40.3087 14.1803 40.6936 14.1803 41.3868V43.6627L15.0842 43.6646Z" fill="#19110B"/>
<path d="M55.484 30.0286V29.4559H55.326L55.1433 29.8489L54.9615 29.4559H54.803V30.0286H54.9152V29.5971L55.0861 29.9694H55.2024L55.3733 29.5962V30.0286H55.4845H55.484ZM54.4817 30.0286V29.554H54.6839V29.4573H54.1672V29.554H54.3695V30.0286H54.4807H54.4817Z" fill="#F79E1B"/>
<path fill-rule="evenodd" clip-rule="evenodd" d="M37.7294 32.606H24.2131V8.3219H37.7297L37.7294 32.606Z" fill="#FF5F00"/>
<path fill-rule="evenodd" clip-rule="evenodd" d="M25.0764 20.4639C25.0764 15.5316 27.3816 11.1378 30.9711 8.30633C28.254 6.15986 24.8933 4.99489 21.4332 5.00002C12.9095 5.00002 6 11.9233 6 20.4639C6 29.0045 12.9095 35.9278 21.4332 35.9278C24.8934 35.933 28.2542 34.768 30.9714 32.6215C27.3821 29.7905 25.0764 25.3965 25.0764 20.4639Z" fill="#EB001B"/>
<path fill-rule="evenodd" clip-rule="evenodd" d="M56 20.4639C56 29.0045 49.0909 35.9278 40.5676 35.9278C37.1071 35.9329 33.7462 34.768 31.0286 32.6215C34.619 29.79 36.9241 25.3965 36.9241 20.4639C36.9241 15.5313 34.619 11.1378 31.0286 8.30633C33.7461 6.15992 37.107 4.99498 40.5674 5.00002C49.0906 5.00002 55.9998 11.9233 55.9998 20.4639" fill="#F79E1B"/>
</svg>
