<svg width="50" height="13" viewBox="0 0 50 13" fill="none" xmlns="http://www.w3.org/2000/svg">
<path d="M38.6508 3.33337H35.9524C35.7937 3.33337 35.6349 3.4921 35.5556 3.65083L34.4445 10.635C34.4445 10.7937 34.5238 10.8731 34.6826 10.8731H36.1111C36.2699 10.8731 36.3492 10.7937 36.3492 10.635L36.6667 8.65084C36.6667 8.49211 36.8254 8.33337 37.0635 8.33337H37.9365C39.7619 8.33337 40.7937 7.46036 41.0318 5.71433C41.1905 5.00004 41.0318 4.36512 40.7143 3.96829C40.2381 3.57147 39.5238 3.33337 38.6508 3.33337M38.9683 5.95242C38.8095 6.9048 38.0952 6.9048 37.381 6.9048H36.9048L37.2222 5.07941C37.2222 5.00004 37.3016 4.92068 37.4603 4.92068H37.6191C38.0953 4.92068 38.5714 4.92068 38.8095 5.23814C38.9683 5.3175 38.9683 5.5556 38.9683 5.95242" fill="#139AD6"/>
<path d="M19.2064 3.33337H16.5079C16.3492 3.33337 16.1905 3.4921 16.1111 3.65083L15 10.635C15 10.7937 15.0794 10.8731 15.2381 10.8731H16.5079C16.6667 10.8731 16.8254 10.7143 16.9048 10.5556L17.2222 8.65084C17.2222 8.49211 17.381 8.33337 17.619 8.33337H18.4921C20.3175 8.33337 21.3492 7.46036 21.5873 5.71433C21.746 5.00004 21.5873 4.36512 21.2698 3.96829C20.7937 3.57147 20.1587 3.33337 19.2064 3.33337M19.5238 5.95242C19.3651 6.9048 18.6508 6.9048 17.9365 6.9048H17.5397L17.8571 5.07941C17.8571 5.00004 17.9365 4.92068 18.0952 4.92068H18.254C18.7302 4.92068 19.2063 4.92068 19.4444 5.23814C19.5238 5.3175 19.6032 5.5556 19.5238 5.95242ZM27.381 5.87306H26.1111C26.0317 5.87306 25.873 5.95242 25.873 6.03179L25.7937 6.42861L25.7143 6.26988C25.3968 5.87306 24.8413 5.71433 24.2064 5.71433C22.7778 5.71433 21.5079 6.82544 21.2698 8.33337C21.1111 9.12702 21.3492 9.84131 21.746 10.3175C22.1429 10.7937 22.6984 10.9524 23.4127 10.9524C24.6032 10.9524 25.2381 10.2381 25.2381 10.2381L25.1587 10.635C25.1587 10.7937 25.2381 10.8731 25.3968 10.8731H26.5873C26.746 10.8731 26.9048 10.7143 26.9841 10.5556L27.6984 6.11115C27.6191 6.03179 27.4603 5.87306 27.381 5.87306M25.5556 8.41274C25.3968 9.12702 24.8413 9.68258 24.0476 9.68258C23.6508 9.68258 23.3333 9.52385 23.1746 9.36512C23.0159 9.12702 22.9365 8.80956 22.9365 8.41274C23.0159 7.69845 23.6508 7.1429 24.3651 7.1429C24.7619 7.1429 25 7.30163 25.2381 7.46036C25.4762 7.69845 25.5556 8.09528 25.5556 8.41274Z" fill="#263B80"/>
<path d="M46.746 5.87302H45.4762C45.3968 5.87302 45.2381 5.95239 45.2381 6.03175L45.1587 6.42858L45.0794 6.26985C44.7619 5.87302 44.2064 5.71429 43.5714 5.71429C42.1429 5.71429 40.873 6.82541 40.6349 8.33334C40.4762 9.12699 40.7143 9.84128 41.1111 10.3175C41.5079 10.7937 42.0635 10.9524 42.7778 10.9524C43.9683 10.9524 44.6032 10.2381 44.6032 10.2381L44.5238 10.6349C44.5238 10.7937 44.6032 10.873 44.7619 10.873H45.9524C46.1111 10.873 46.2698 10.7143 46.3492 10.5556L47.0635 6.11112C46.9841 6.03175 46.9048 5.87302 46.746 5.87302M44.9206 8.41271C44.7619 9.12699 44.2064 9.68255 43.4127 9.68255C43.0159 9.68255 42.6984 9.52382 42.5397 9.36509C42.381 9.12699 42.3016 8.80953 42.3016 8.41271C42.381 7.69842 43.0159 7.14287 43.7302 7.14287C44.127 7.14287 44.3651 7.3016 44.6032 7.46033C44.9206 7.69842 45 8.09525 44.9206 8.41271Z" fill="#139AD6"/>
<path d="M34.2857 5.87305H32.9365C32.7778 5.87305 32.6984 5.95241 32.6191 6.03178L30.873 8.73019L30.0794 6.19051C30 6.03178 29.9207 5.95241 29.6826 5.95241H28.4127C28.254 5.95241 28.1746 6.11114 28.1746 6.26987L29.6032 10.4762L28.254 12.381C28.1746 12.5397 28.254 12.7778 28.4127 12.7778H29.6826C29.8413 12.7778 29.9207 12.6984 30 12.6191L34.3651 6.34924C34.6032 6.11114 34.4445 5.87305 34.2857 5.87305" fill="#263B80"/>
<path d="M48.254 3.5714L47.1429 10.7143C47.1429 10.873 47.2222 10.9523 47.3809 10.9523H48.4921C48.6508 10.9523 48.8095 10.7936 48.8889 10.6349L50 3.65076C50 3.49203 49.9206 3.41267 49.7619 3.41267H48.4921C48.4127 3.3333 48.3333 3.41267 48.254 3.5714" fill="#139AD6"/>
<path d="M9.12699 0.952382C8.57143 0.317461 7.53968 0 6.11111 0H2.14286C1.90476 0 1.66667 0.238096 1.5873 0.476191L0 10.873C0 11.1111 0.15873 11.2698 0.31746 11.2698H2.77778L3.4127 7.38095V7.53968C3.49206 7.30159 3.73016 7.06349 3.96825 7.06349H5.15873C7.46032 7.06349 9.20635 6.11111 9.76191 3.49206V3.25397C9.68254 3.25397 9.68254 3.25397 9.76191 3.25397C9.84127 2.22222 9.68254 1.5873 9.12699 0.952382" fill="#263B80"/>
<path d="M9.68256 3.25397V3.49206C9.12701 6.19048 7.38097 7.06349 5.07939 7.06349H3.88891C3.65081 7.06349 3.41272 7.30159 3.33335 7.53968L2.5397 12.381C2.5397 12.5397 2.61907 12.6984 2.85716 12.6984H4.92066C5.15875 12.6984 5.39685 12.5397 5.39685 12.3016V12.2222L5.79367 9.7619V9.60317C5.79367 9.36508 6.03177 9.20635 6.26986 9.20635H6.58732C8.57145 9.20635 10.1588 8.4127 10.5556 6.03175C10.7143 5.07936 10.6349 4.20635 10.1588 3.65079C10.0794 3.49206 9.92066 3.33333 9.68256 3.25397" fill="#139AD6"/>
</svg>
