<svg width="50" height="18" viewBox="0 0 50 18" fill="none" xmlns="http://www.w3.org/2000/svg">
<path d="M20.5739 16.8606C20.4907 16.8606 20.4108 16.8275 20.352 16.7687C20.2931 16.7098 20.2601 16.63 20.2601 16.5468V6.38452C20.2612 5.40383 20.6512 4.46362 21.3446 3.77012C22.038 3.07662 22.9782 2.68645 23.9589 2.68521L26.9605 2.68991C27.9386 2.69309 28.8758 3.08351 29.5668 3.77578C30.2579 4.46804 30.6468 5.40582 30.6483 6.384V8.54721C30.6472 9.52785 30.2571 10.468 29.5637 11.1614C28.8703 11.8548 27.9301 12.2449 26.9495 12.246H22.7083C22.6251 12.246 22.5453 12.2129 22.4864 12.1541C22.4276 12.0952 22.3945 12.0154 22.3945 11.9322C22.3945 11.849 22.4276 11.7691 22.4864 11.7103C22.5453 11.6514 22.6251 11.6184 22.7083 11.6184H26.9484C27.7628 11.6174 28.5435 11.2936 29.1194 10.7178C29.6953 10.1421 30.0194 9.36153 30.0207 8.54721V6.384C30.0194 5.57177 29.6966 4.79308 29.1229 4.21816C28.5492 3.64324 27.7711 3.31887 26.9589 3.31597L23.9589 3.31126C23.1441 3.31223 22.363 3.63635 21.787 4.2125C21.2109 4.78865 20.887 5.56979 20.8861 6.38452V16.5473C20.886 16.6302 20.8531 16.7096 20.7946 16.7683C20.7361 16.827 20.6567 16.8602 20.5739 16.8606V16.8606ZM33.8643 12.2915C33.7811 12.2915 33.7013 12.2584 33.6424 12.1996C33.5836 12.1407 33.5505 12.0609 33.5505 11.9777V4.38659C33.5502 4.10115 33.4368 3.82748 33.235 3.6256C33.0332 3.42371 32.7596 3.31011 32.4741 3.30969H31.1713C31.0881 3.30969 31.0083 3.27663 30.9494 3.21778C30.8905 3.15893 30.8575 3.07911 30.8575 2.99588C30.8575 2.91265 30.8905 2.83283 30.9494 2.77398C31.0083 2.71513 31.0881 2.68207 31.1713 2.68207H32.4731C32.9245 2.68248 33.3573 2.86198 33.6764 3.18116C33.9956 3.50033 34.1751 3.93311 34.1755 4.38449V11.9787C34.1752 12.0613 34.1424 12.1405 34.0842 12.199C34.0259 12.2576 33.9469 12.2908 33.8643 12.2915Z" fill="#939598"/>
<path d="M33.5851 1.82068L32.9951 1.23019C32.9603 1.19537 32.9326 1.15403 32.9138 1.10853C32.895 1.06303 32.8853 1.01427 32.8853 0.965019C32.8853 0.915772 32.895 0.867008 32.9138 0.82151C32.9326 0.776011 32.9603 0.734672 32.9951 0.699849L33.5851 0.109884C33.6555 0.0395235 33.7509 0 33.8505 0C33.95 0 34.0455 0.0395235 34.1159 0.109884L34.7059 0.699849C34.7407 0.734672 34.7683 0.776011 34.7872 0.82151C34.806 0.867008 34.8157 0.915772 34.8157 0.965019C34.8157 1.01427 34.806 1.06303 34.7872 1.10853C34.7683 1.15403 34.7407 1.19537 34.7059 1.23019L34.1159 1.82068C34.0455 1.89104 33.95 1.93056 33.8505 1.93056C33.7509 1.93056 33.6555 1.89104 33.5851 1.82068V1.82068Z" fill="#32BCAD"/>
<path d="M37.6525 12.2251H36.3617C36.2785 12.2251 36.1987 12.192 36.1398 12.1332C36.081 12.0743 36.0479 11.9945 36.0479 11.9113C36.0479 11.8281 36.081 11.7482 36.1398 11.6894C36.1987 11.6305 36.2785 11.5975 36.3617 11.5975H37.6525C37.9404 11.5982 38.2255 11.5419 38.4914 11.4318C38.7573 11.3216 38.9987 11.1598 39.2017 10.9557L42.2211 7.93633C42.3432 7.81428 42.4881 7.71746 42.6475 7.6514C42.807 7.58535 42.9779 7.55135 43.1505 7.55135C43.3231 7.55135 43.494 7.58535 43.6535 7.6514C43.813 7.71746 43.9579 7.81428 44.0799 7.93633L47.0883 10.9447C47.2915 11.1494 47.5333 11.3117 47.7997 11.4221C48.0661 11.5326 48.3517 11.589 48.6401 11.5881H49.6862C49.7694 11.5881 49.8492 11.6211 49.9081 11.68C49.9669 11.7388 50 11.8186 50 11.9019C50 11.9851 49.9669 12.0649 49.9081 12.1238C49.8492 12.1826 49.7694 12.2157 49.6862 12.2157H48.6401C48.2701 12.2166 47.9035 12.1442 47.5616 12.0025C47.2198 11.8609 46.9094 11.6528 46.6485 11.3904L43.6374 8.37933C43.5735 8.31534 43.4976 8.26458 43.4141 8.22995C43.3305 8.19532 43.241 8.1775 43.1505 8.1775C43.0601 8.1775 42.9705 8.19532 42.887 8.22995C42.8034 8.26458 42.7275 8.31534 42.6636 8.37933L39.6442 11.4003C39.3832 11.6626 39.0728 11.8706 38.731 12.0121C38.3891 12.1537 38.0226 12.2261 37.6525 12.2251V12.2251ZM43.1484 7.3495C42.9757 7.34981 42.8047 7.31591 42.6452 7.24975C42.4856 7.18359 42.3408 7.08648 42.219 6.96404L39.1996 3.94465C38.9967 3.74137 38.7555 3.58028 38.4899 3.47067C38.2244 3.36107 37.9398 3.30511 37.6525 3.30604H36.3617C36.2785 3.30604 36.1987 3.27298 36.1398 3.21413C36.081 3.15528 36.0479 3.07546 36.0479 2.99223C36.0479 2.909 36.081 2.82918 36.1398 2.77033C36.1987 2.71148 36.2785 2.67842 36.3617 2.67842H37.6525C38.0225 2.67728 38.389 2.74949 38.7308 2.89088C39.0727 3.03228 39.3831 3.24005 39.6442 3.50217L42.6636 6.52156C42.7275 6.58555 42.8034 6.63631 42.887 6.67094C42.9705 6.70557 43.0601 6.7234 43.1505 6.7234C43.241 6.7234 43.3305 6.70557 43.4141 6.67094C43.4976 6.63631 43.5735 6.58555 43.6374 6.52156L46.6459 3.51525C46.9069 3.2522 47.2177 3.04364 47.56 2.90168C47.9024 2.75973 48.2695 2.68722 48.6401 2.68836H49.6862C49.7694 2.68836 49.8492 2.72142 49.9081 2.78027C49.9669 2.83912 50 2.91894 50 3.00217C50 3.0854 49.9669 3.16522 49.9081 3.22407C49.8492 3.28292 49.7694 3.31598 49.6862 3.31598H48.6401C48.3523 3.31512 48.0672 3.37135 47.8013 3.48141C47.5354 3.59148 47.2939 3.7532 47.0909 3.9572L44.0825 6.96561C43.9601 7.08833 43.8144 7.18547 43.654 7.25138C43.4937 7.31729 43.3218 7.35064 43.1484 7.3495V7.3495Z" fill="#939598"/>
<path d="M12.8777 13.8412C12.559 13.842 12.2433 13.7797 11.9488 13.6578C11.6544 13.5359 11.387 13.3568 11.1622 13.131L8.68514 10.6539C8.59754 10.5702 8.48102 10.5234 8.35982 10.5234C8.23862 10.5234 8.1221 10.5702 8.0345 10.6539L5.54859 13.1388C5.32374 13.3647 5.05637 13.5437 4.76192 13.6656C4.46747 13.7875 4.15178 13.8499 3.83309 13.8491H3.34668L6.4848 16.9872C6.95549 17.4572 7.59346 17.7211 8.25861 17.7211C8.92377 17.7211 9.56174 17.4572 10.0324 16.9872L13.1784 13.8412H12.8777Z" fill="#32BCAD"/>
<path d="M3.83308 5.08016C4.15178 5.07924 4.46751 5.14154 4.76197 5.26346C5.05644 5.38537 5.3238 5.56448 5.54858 5.79042L8.03449 8.27476C8.12086 8.36087 8.23785 8.40922 8.35981 8.40922C8.48177 8.40922 8.59876 8.36087 8.68513 8.27476L11.1621 5.79774C11.3869 5.57181 11.6543 5.3927 11.9488 5.27078C12.2432 5.14886 12.5589 5.08656 12.8777 5.08748H13.1758L10.0298 1.94152C9.55911 1.47155 8.92115 1.20758 8.25599 1.20758C7.59084 1.20758 6.95287 1.47155 6.48217 1.94152L3.34406 5.07964L3.83308 5.08016Z" fill="#32BCAD"/>
<path d="M15.7778 7.69103L13.8766 5.78985C13.8338 5.80766 13.788 5.81707 13.7417 5.81757H12.8777C12.4268 5.81802 11.9945 5.99661 11.6747 6.31444L9.19822 8.79146C8.97513 9.01423 8.67274 9.13936 8.35747 9.13936C8.0422 9.13936 7.73981 9.01423 7.51672 8.79146L5.0308 6.30555C4.71177 5.98821 4.28046 5.80949 3.83048 5.80816H2.77136C2.72762 5.80743 2.68438 5.79875 2.64375 5.78253L0.734202 7.69103C0.264069 8.16175 0 8.79983 0 9.46511C0 10.1304 0.264069 10.7685 0.734202 11.2392L2.6427 13.1477C2.68328 13.1312 2.72654 13.1224 2.77032 13.1215H3.83309C4.28301 13.1204 4.71433 12.9419 5.03342 12.6247L7.51933 10.1388C7.9686 9.69001 8.75156 9.68949 9.20084 10.1388L11.6773 12.6158C11.9969 12.934 12.4293 13.1128 12.8803 13.1132H13.7443C13.7908 13.1136 13.8367 13.1228 13.8798 13.1404L15.7804 11.2397C16.2506 10.769 16.5146 10.1309 16.5146 9.46563C16.5146 8.80035 16.2506 8.16227 15.7804 7.69155L15.7778 7.69103Z" fill="#32BCAD"/>
<path d="M23.1539 15.6838C22.9969 15.6907 22.841 15.7144 22.689 15.7545V16.3742C22.8054 16.4149 22.928 16.4352 23.0514 16.4344C23.3616 16.4344 23.509 16.3298 23.509 16.0562C23.509 15.7989 23.3882 15.6838 23.1539 15.6838ZM22.5844 16.8345V15.609H22.6696L22.6785 15.6614C22.8369 15.619 22.9991 15.5929 23.1628 15.5834C23.2764 15.5756 23.389 15.6082 23.4808 15.6755C23.5854 15.7623 23.621 15.9025 23.621 16.0552C23.621 16.2079 23.5687 16.3659 23.4222 16.4495C23.3103 16.5048 23.1866 16.5321 23.0619 16.529C22.9355 16.5285 22.8098 16.5094 22.689 16.4726V16.8329L22.5844 16.8345Z" fill="#939598"/>
<path d="M24.4008 15.6802C24.0901 15.6802 23.9515 15.7774 23.9515 16.051C23.9515 16.3156 24.088 16.4344 24.4008 16.4344C24.7136 16.4344 24.848 16.3386 24.848 16.0651C24.848 15.8005 24.7115 15.6802 24.4008 15.6802V15.6802ZM24.7999 16.4338C24.6953 16.5081 24.5587 16.5295 24.4008 16.5295C24.2428 16.5295 24.1006 16.5065 23.9996 16.4338C23.8856 16.3538 23.8396 16.2246 23.8396 16.0578C23.8396 15.8909 23.8856 15.7612 23.9996 15.6791C24.1006 15.6064 24.2392 15.5839 24.4008 15.5839C24.5624 15.5839 24.6968 15.6064 24.7999 15.6791C24.9154 15.7612 24.9599 15.8941 24.9599 16.0557C24.9599 16.2173 24.9134 16.3538 24.7999 16.4338Z" fill="#939598"/>
<path d="M26.2701 16.5055L25.9244 15.7617H25.917L25.576 16.5055H25.4824L25.1132 15.609H25.2282L25.5352 16.3616H25.5426L25.8762 15.609H25.972L26.3145 16.3616H26.3219L26.6215 15.609H26.7335L26.3642 16.5055H26.2701Z" fill="#939598"/>
<path d="M27.4056 15.678C27.1179 15.678 27.0206 15.8062 27.0028 15.9919H27.8083C27.7999 15.7879 27.6948 15.678 27.4056 15.678V15.678ZM27.4024 16.53C27.2298 16.53 27.1179 16.5055 27.0295 16.4307C26.9249 16.3402 26.8893 16.2089 26.8893 16.0583C26.8893 15.9076 26.9369 15.7617 27.0562 15.6749C27.1605 15.6094 27.2826 15.5778 27.4056 15.5844C27.5312 15.5767 27.6562 15.607 27.7644 15.6712C27.8935 15.7581 27.9213 15.9108 27.9213 16.0844H26.9966C27.0002 16.2691 27.0604 16.4328 27.4082 16.4328C27.5639 16.429 27.7189 16.4115 27.8716 16.3805V16.4746C27.7165 16.5065 27.5591 16.5248 27.4009 16.5295L27.4024 16.53Z" fill="#939598"/>
<path d="M28.2168 16.5055V15.6091H28.302L28.3109 15.6614C28.5008 15.6132 28.5897 15.5834 28.756 15.5834H28.7686V15.6828H28.744C28.6038 15.6828 28.5186 15.7022 28.3214 15.7534V16.5045L28.2168 16.5055Z" fill="#939598"/>
<path d="M29.3768 15.678C29.0892 15.678 28.9919 15.8062 28.9741 15.9919H29.7795C29.7712 15.7879 29.666 15.678 29.3768 15.678V15.678ZM29.3732 16.53C29.2011 16.53 29.0892 16.5055 29.0008 16.4307C28.8962 16.3402 28.8606 16.2089 28.8606 16.0583C28.8606 15.9076 28.9082 15.7617 29.0274 15.6749C29.1318 15.6094 29.2538 15.5778 29.3768 15.5844C29.5024 15.5767 29.6274 15.607 29.7356 15.6712C29.8648 15.7581 29.8925 15.9108 29.8925 16.0844H28.9704C28.9741 16.2691 29.0342 16.4328 29.382 16.4328C29.5377 16.429 29.6928 16.4115 29.8454 16.3805V16.4746C29.6904 16.5065 29.5329 16.5248 29.3747 16.5295L29.3732 16.53Z" fill="#939598"/>
<path d="M31.0369 15.7403C30.9206 15.6997 30.7982 15.6793 30.675 15.6802C30.3643 15.6802 30.2173 15.7848 30.2173 16.0583C30.2173 16.3172 30.3376 16.4307 30.5719 16.4307C30.7289 16.4237 30.8847 16.4005 31.0369 16.3617V15.7403ZM31.0568 16.5055L31.0479 16.4532C30.8893 16.4953 30.7269 16.5214 30.563 16.5311C30.4496 16.5398 30.3368 16.5071 30.2456 16.4391C30.141 16.3517 30.1054 16.2116 30.1054 16.0594C30.1054 15.8993 30.1577 15.7487 30.3042 15.6666C30.4162 15.6099 30.5406 15.582 30.6661 15.5855C30.7917 15.587 30.9165 15.606 31.0369 15.642V15.2309H31.1415V16.5055H31.0568Z" fill="#939598"/>
<path d="M32.6776 15.6838C32.5204 15.6907 32.3643 15.7143 32.2121 15.7544V16.3721C32.3283 16.4142 32.451 16.4353 32.5746 16.4344C32.8853 16.4344 33.0322 16.3298 33.0322 16.0562C33.0322 15.7989 32.9119 15.6838 32.6776 15.6838ZM32.9454 16.4506C32.8335 16.5058 32.7098 16.5331 32.5851 16.5301C32.4486 16.5292 32.3131 16.5064 32.1839 16.4626L32.1787 16.5055H32.1075V15.2309H32.2121V15.6587C32.3674 15.619 32.5261 15.5941 32.686 15.5845C32.7996 15.5765 32.9122 15.6091 33.004 15.6765C33.1086 15.7633 33.1442 15.9035 33.1442 16.0562C33.1442 16.2089 33.0919 16.3669 32.9454 16.4506Z" fill="#939598"/>
<path d="M33.2832 16.8522V16.755C33.3355 16.7602 33.3826 16.7638 33.4161 16.7638C33.5458 16.7638 33.6253 16.7262 33.6969 16.5787L33.7304 16.5081L33.2597 15.6116H33.3805L33.7864 16.3815H33.7937L34.175 15.608H34.2937L33.7864 16.6153C33.6938 16.7984 33.5944 16.8585 33.4114 16.8585C33.3682 16.858 33.325 16.8551 33.2822 16.8496L33.2832 16.8522Z" fill="#939598"/>
<path d="M35.7347 15.994H35.3869V16.3078H35.7362C35.9763 16.3078 36.0668 16.2811 36.0668 16.1509C36.0668 16.0107 35.9423 15.994 35.7347 15.994ZM35.6693 15.4846H35.3869V15.8062H35.6724C35.9088 15.8062 36.003 15.778 36.003 15.6446C36.003 15.5029 35.8837 15.4877 35.6709 15.4877L35.6693 15.4846ZM36.2091 16.4203C36.0809 16.5018 35.9266 16.5055 35.6442 16.5055H35.1154V15.2895H35.6337C35.8769 15.2895 36.026 15.2932 36.15 15.3679C36.1912 15.3925 36.2247 15.428 36.2467 15.4707C36.2687 15.5133 36.2783 15.5612 36.2744 15.6091C36.2744 15.7367 36.2221 15.8219 36.0825 15.8789V15.8857C36.2394 15.9213 36.3398 16.0013 36.3398 16.1734C36.3437 16.2225 36.3337 16.2718 36.3108 16.3155C36.288 16.3591 36.2532 16.3955 36.2106 16.4203H36.2091Z" fill="#939598"/>
<path d="M37.4021 16.1289C37.2974 16.12 37.1928 16.1148 37.0788 16.1148C36.8958 16.1148 36.832 16.1519 36.832 16.2356C36.832 16.3193 36.8843 16.3564 37.0255 16.3564C37.1525 16.352 37.2787 16.3345 37.4021 16.3041V16.13V16.1289ZM37.4544 16.5055L37.4476 16.4532C37.2889 16.4975 37.1257 16.5236 36.9611 16.5311C36.866 16.5378 36.7712 16.5147 36.6897 16.4652C36.6546 16.4358 36.6274 16.3981 36.6105 16.3556C36.5935 16.3131 36.5874 16.2671 36.5925 16.2216C36.5977 16.1761 36.6141 16.1326 36.6402 16.095C36.6662 16.0574 36.7012 16.0268 36.742 16.006C36.8361 15.9616 36.9622 15.9579 37.0778 15.9579C37.1714 15.9579 37.2974 15.9631 37.4026 15.9705V15.9542C37.4026 15.8141 37.31 15.768 37.0579 15.768C36.9606 15.768 36.8414 15.7733 36.7279 15.7837V15.6028C36.8539 15.5923 36.9957 15.5855 37.1128 15.5855C37.2697 15.5855 37.4308 15.5975 37.5312 15.6687C37.6317 15.7398 37.6536 15.8428 37.6536 15.9757V16.5065L37.4544 16.5055Z" fill="#939598"/>
<path d="M38.8225 16.5055V16.0102C38.8225 15.847 38.7388 15.7885 38.5898 15.7885C38.4661 15.7939 38.3433 15.8129 38.2237 15.8449V16.5055H37.9731V15.6091H38.1797L38.1881 15.6655C38.3443 15.6201 38.5053 15.5929 38.6677 15.5845C38.778 15.5757 38.8875 15.6085 38.9747 15.6765C39.0459 15.7403 39.0725 15.8292 39.0725 15.9569V16.5055H38.8225Z" fill="#939598"/>
<path d="M39.7781 16.5301C39.6625 16.5301 39.5365 16.5144 39.4444 16.4359C39.3341 16.3475 39.3022 16.2074 39.3022 16.0562C39.3022 15.9145 39.3482 15.7597 39.4852 15.6728C39.5966 15.6001 39.7352 15.5839 39.8791 15.5839C39.9837 15.5839 40.0831 15.5912 40.1929 15.6017V15.7937C40.1024 15.7848 39.9941 15.7774 39.9073 15.7774C39.6693 15.7774 39.5574 15.8522 39.5574 16.0583C39.5574 16.2518 39.6411 16.335 39.8362 16.335C39.9628 16.3308 40.0888 16.3154 40.2128 16.289V16.4736C40.0693 16.5064 39.9231 16.5253 39.776 16.5301H39.7781Z" fill="#939598"/>
<path d="M40.9518 15.7722C40.7138 15.7722 40.6092 15.847 40.6092 16.051C40.6092 16.255 40.7138 16.3423 40.9518 16.3423C41.1897 16.3423 41.2907 16.2691 41.2907 16.0651C41.2907 15.8611 41.1897 15.7722 40.9518 15.7722V15.7722ZM41.3832 16.4338C41.2734 16.5086 41.1296 16.528 40.9538 16.528C40.7781 16.528 40.6306 16.5065 40.5224 16.4338C40.3984 16.3523 40.3539 16.2173 40.3539 16.0562C40.3539 15.8951 40.3984 15.7576 40.5224 15.676C40.6306 15.6033 40.7744 15.5818 40.9538 15.5818C41.1332 15.5818 41.2734 15.6033 41.3832 15.676C41.5077 15.7576 41.5501 15.8946 41.5501 16.0541C41.5501 16.2137 41.5056 16.3523 41.3832 16.4338Z" fill="#939598"/>
<path d="M42.9952 16.5301C42.8441 16.5301 42.6814 16.5055 42.5585 16.404C42.4131 16.2832 42.3687 16.097 42.3687 15.8967C42.3687 15.7173 42.4251 15.5044 42.615 15.38C42.7625 15.2842 42.9455 15.2649 43.1302 15.2649C43.2651 15.2649 43.4032 15.2738 43.5543 15.2858V15.5044C43.4246 15.4934 43.2651 15.4846 43.1406 15.4846C42.7944 15.4846 42.6474 15.6164 42.6474 15.8967C42.6474 16.177 42.7839 16.3104 43.0397 16.3104C43.2221 16.3039 43.4034 16.2794 43.581 16.2372V16.4537C43.3887 16.4984 43.1925 16.524 42.9952 16.5301V16.5301Z" fill="#939598"/>
<path d="M44.3163 15.744C44.1071 15.744 44.0287 15.8187 44.0125 15.9532H44.616C44.6092 15.8078 44.524 15.744 44.3163 15.744ZM44.2787 16.5285C44.1317 16.5285 43.9983 16.5107 43.899 16.4291C43.7996 16.3475 43.7551 16.2073 43.7551 16.0546C43.7551 15.9181 43.7996 15.7654 43.9241 15.6765C44.0339 15.5986 44.1741 15.5823 44.3163 15.5823C44.4439 15.5823 44.5951 15.5965 44.7049 15.6728C44.8488 15.7743 44.8618 15.9307 44.8618 16.1153H44.0109C44.0161 16.2518 44.0888 16.3407 44.3409 16.3407C44.501 16.3373 44.6607 16.3218 44.8184 16.2942V16.4699C44.6404 16.504 44.4599 16.5236 44.2787 16.5285V16.5285Z" fill="#939598"/>
<path d="M45.9764 16.5055V16.0102C45.9764 15.847 45.8927 15.7884 45.7437 15.7884C45.62 15.7939 45.4972 15.8128 45.3776 15.8449V16.5055H45.1276V15.609H45.3315L45.3404 15.6655C45.4964 15.62 45.6572 15.5928 45.8195 15.5844C45.9298 15.5756 46.0393 15.6084 46.1265 15.6765C46.1977 15.7403 46.2243 15.8292 46.2243 15.9568V16.5055H45.9764Z" fill="#939598"/>
<path d="M46.9372 16.5301C46.8164 16.5301 46.7066 16.4966 46.6464 16.4025C46.597 16.3209 46.574 16.2261 46.5805 16.131V15.7952H46.3995V15.609H46.5805L46.6072 15.3376H46.8289V15.609H47.182V15.7952H46.8289V16.0829C46.8255 16.1408 46.834 16.1989 46.854 16.2534C46.8807 16.3135 46.9388 16.3366 47.0172 16.3366C47.0772 16.3354 47.137 16.3296 47.1961 16.3193V16.4982C47.111 16.5169 47.0243 16.5275 46.9372 16.5301V16.5301Z" fill="#939598"/>
<path d="M47.4262 16.5055V15.609H47.6302L47.6396 15.6655C47.7827 15.6171 47.9321 15.5898 48.0831 15.5844C48.0937 15.5838 48.1044 15.5838 48.115 15.5844V15.7973C48.0868 15.7973 48.0528 15.7973 48.0282 15.7973C47.9096 15.7978 47.7915 15.8132 47.6767 15.8433V16.5055H47.4262Z" fill="#939598"/>
<path d="M49.0251 16.1289C48.9205 16.12 48.8159 16.1148 48.7019 16.1148C48.5188 16.1148 48.455 16.1519 48.455 16.2356C48.455 16.3193 48.5073 16.3564 48.6485 16.3564C48.7755 16.352 48.9017 16.3345 49.0251 16.3041V16.13V16.1289ZM49.0774 16.5055L49.0706 16.4532C48.9119 16.4975 48.7488 16.5236 48.5842 16.5311C48.4891 16.5378 48.3942 16.5147 48.3127 16.4652C48.2777 16.4358 48.2505 16.3981 48.2335 16.3556C48.2166 16.3131 48.2104 16.2671 48.2156 16.2216C48.2208 16.1761 48.2371 16.1326 48.2632 16.095C48.2893 16.0574 48.3243 16.0268 48.365 16.006C48.4592 15.9616 48.5852 15.9579 48.7008 15.9579C48.7944 15.9579 48.9205 15.9631 49.0256 15.9705V15.9542C49.0256 15.8141 48.933 15.768 48.681 15.768C48.5837 15.768 48.4644 15.7733 48.3509 15.7837V15.6028C48.477 15.5923 48.6187 15.5855 48.7359 15.5855C48.8928 15.5855 49.0539 15.5975 49.1543 15.6687C49.2547 15.7398 49.2767 15.8428 49.2767 15.9757V16.5065L49.0774 16.5055Z" fill="#939598"/>
<path d="M49.5967 15.2309H49.8473V16.5055H49.5967V15.2309Z" fill="#939598"/>
</svg>
