<svg width="51" height="17" viewBox="0 0 51 17" fill="none" xmlns="http://www.w3.org/2000/svg">
<path d="M21.8638 16.7165H17.7839L20.3338 1.04582H24.4141L21.8638 16.7165ZM14.3517 1.04582L10.4621 11.8242L10.0018 9.50323L10.0022 9.50407L8.62942 2.45679C8.62942 2.45679 8.46342 1.04582 6.69406 1.04582H0.263807L0.188354 1.31116C0.188354 1.31116 2.15474 1.72029 4.45604 3.10233L8.00065 16.7169H12.2516L18.7426 1.04582H14.3517ZM46.4421 16.7165H50.1884L46.9221 1.0454H43.6424C42.1279 1.0454 41.759 2.21324 41.759 2.21324L35.6742 16.7165H39.9272L40.7777 14.3888H45.9643L46.4421 16.7165ZM41.9527 11.1733L44.0964 5.3089L45.3024 11.1733H41.9527ZM35.9932 4.81427L36.5754 1.44907C36.5754 1.44907 34.7788 0.765808 32.9059 0.765808C30.8813 0.765808 26.0732 1.6507 26.0732 5.9536C26.0732 10.0021 31.7163 10.0524 31.7163 12.1789C31.7163 14.3054 26.6547 13.9243 24.9842 12.5834L24.3777 16.102C24.3777 16.102 26.1994 16.9869 28.9828 16.9869C31.767 16.9869 35.9672 15.5453 35.9672 11.6218C35.9672 7.54733 30.2735 7.16797 30.2735 5.39651C30.2739 3.62463 34.2473 3.85224 35.9932 4.81427Z" fill="#1A1F71"/>
<path fill-rule="evenodd" clip-rule="evenodd" d="M10.0022 9.50366L8.62942 2.45638C8.62942 2.45638 8.46342 1.04541 6.69406 1.04541H0.263807L0.188354 1.31075C0.188354 1.31075 3.27898 1.95126 6.24343 4.35108C9.07794 6.64484 10.0022 9.50366 10.0022 9.50366Z" fill="#F7B600"/>
</svg>
